<?xml version="1.0" encoding="utf-8"?>
<!-- Generator: Adobe Illustrator 21.1.0, SVG Export Plug-In . SVG Version: 6.00 Build 0)  -->
<svg version="1.1" id="Layer_1" xmlns="http://www.w3.org/2000/svg" xmlns:xlink="http://www.w3.org/1999/xlink" x="0px" y="0px"
	 viewBox="0 0 560 400" style="enable-background:new 0 0 560 400;" xml:space="preserve">
<style type="text/css">
	.st0{fill:#3C91CF;}
	.st1{fill:#A3AEC7;}
</style>
<g>
	<g>
		<path class="st0" d="M97.1,235.6h-6.8c-7.2,0-10.7,3.9-10.7,11.8v21.5c0,7.9,3.6,11.8,10.7,11.8h6.8c3.3,0,5.7-0.7,7.1-2.1
			s2.1-3.8,2.1-7.1v-26.8c0-3.3-0.7-5.7-2.1-7.1C102.7,236.3,100.4,235.6,97.1,235.6z"/>
		<path class="st0" d="M263.5,297.8h-37.3c-2.2,0-3.3-1.1-3.3-3.3V191.7c0-2.2,1.1-3.3,3.3-3.3h13.2c2.2,0,3.3,1.1,3.3,3.3v35h0.6
			c1.1-2.8,3.2-4.9,6.1-6.4c2.9-1.5,6-2.2,9.2-2.2h5c7.2,0,12.9,1.7,17.2,5c-13.6-57.6-62.2-101.6-122.1-108.5c0,0.7,0.1,1.4,0.1,2
			c0,26.5-21.5,47.9-47.9,47.9c-19.8,0-36.8-12-44.1-29.1C26.6,160.7,0,205.2,0,256c0,78.6,63.7,142.3,142.3,142.3
			c65.5,0,120.6-44.3,137.2-104.5C275.3,296.5,270,297.8,263.5,297.8z M126,272.5c0,8.2-2,14.5-6.1,18.8c-4.1,4.4-10.1,6.5-18.1,6.5
			h-6.4c-3.2,0-6.3-0.7-9.2-2.1c-2.9-1.4-4.9-3.5-6.1-6.3h-0.6v26.4c0,2.1-1.1,3.1-3.3,3.1H63c-2.2,0-3.3-1-3.3-3.1v-94.1
			c0-2.2,1.1-3.3,3.3-3.3h13.2c2.2,0,3.3,1.1,3.3,3.3v5.1h0.6c1.1-2.8,3.2-4.9,6.1-6.3c2.9-1.4,6-2.1,9.2-2.1h6.4
			c8,0,14,2.2,18.1,6.5c4.1,4.4,6.1,10.6,6.1,18.8C126,243.7,126,272.5,126,272.5z M205.8,294.6c0,2.2-1.1,3.3-3.4,3.3h-13.1
			c-2.2,0-3.3-1.1-3.3-3.3v-5.1h-0.6c-1.1,2.8-3.2,4.9-6.1,6.3c-2.9,1.4-6,2.1-9.2,2.1H165c-8,0-14-2.2-18.1-6.5
			c-4.1-4.4-6.1-10.6-6.1-18.8v-50.7c0-2.2,1.1-3.3,3.3-3.3h13.2c2.2,0,3.3,1.1,3.3,3.3v49.8c0,3.3,0.7,5.7,2.1,7.1
			c1.4,1.4,3.7,2.1,6.9,2.1h5.8c7.2,0,10.7-3.9,10.7-11.8V222c0-2.2,1.1-3.3,3.3-3.3h13.1c2.3,0,3.4,1.1,3.4,3.3L205.8,294.6
			L205.8,294.6z"/>
		<path class="st0" d="M253.4,235.3c-7.2,0-10.7,3.9-10.7,11.8V279c0,1.1,0.6,1.7,1.7,1.7h15.9c3.3,0,5.7-0.7,7.1-2.1
			s2.1-3.8,2.1-7.1v-27.1c0-3.3-0.7-5.7-2.1-7.1c-1.4-1.4-3.8-2.1-7.1-2.1h-6.9V235.3z"/>
	</g>
	<circle class="st0" cx="92.9" cy="35.9" r="22.4"/>
	<circle class="st1" cx="185.4" cy="45.1" r="45.1"/>
	<circle class="st1" cx="110.7" cy="113.7" r="33.1"/>
	<path class="st1" d="M322,297.8h-13.2c-2.2,0-3.3-1.1-3.3-3.3V191.7c0-2.2,1.1-3.3,3.3-3.3H322c2.2,0,3.3,1.1,3.3,3.3v102.8
		C325.3,296.8,324.2,297.8,322,297.8z"/>
	<path class="st1" d="M371,297.8h-3.7c-8.2,0-14.5-2.2-19-6.5c-4.5-4.4-6.7-10.6-6.7-18.8v-28.6c0-8.2,2.2-14.5,6.7-18.8
		c4.5-4.4,10.8-6.5,19-6.5h35.9c2.3,0,3.4,1.1,3.4,3.3v72.8c0,2.2-1.1,3.3-3.4,3.3h-13.1c-2.2,0-3.3-1.1-3.3-3.3v-5.1h-0.6
		c-1.1,2.8-3.2,4.9-6.1,6.3C377.3,297.1,374.2,297.8,371,297.8z M386.9,268.9v-31.6c0-1.1-0.6-1.7-1.9-1.7h-14.6
		c-3.3,0-5.7,0.7-7,2.1c-1.3,1.4-2,3.8-2,7.1v26.8c0,3.3,0.7,5.7,2,7.1s3.7,2.1,7,2.1h5.8C383.3,280.7,386.9,276.8,386.9,268.9z"/>
	<path class="st1" d="M423.7,294.6V191.7c0-2.2,1.1-3.3,3.3-3.3h13.2c2.2,0,3.3,1.1,3.3,3.3v35h0.6c1.1-2.8,3.2-4.9,6.1-6.4
		s6-2.2,9.2-2.2h5c8.2,0,14.5,2.2,19,6.5c4.5,4.4,6.7,10.6,6.7,18.8v28.9c0,8.2-2.2,14.5-6.7,18.8c-4.5,4.4-10.8,6.5-19,6.5H427
		C424.8,297.8,423.7,296.8,423.7,294.6z M445.2,280.7h15.9c3.3,0,5.7-0.7,7.1-2.1s2.1-3.8,2.1-7.1v-27.1c0-3.3-0.7-5.7-2.1-7.1
		c-1.4-1.4-3.8-2.1-7.1-2.1h-6.8c-7.2,0-10.7,3.9-10.7,11.8v32C443.5,280.2,444.1,280.7,445.2,280.7z"/>
	<path class="st1" d="M535.6,297.8H506c-2.1,0-3.1-1.1-3.1-3.3v-10c0-1.1,0.2-1.9,0.6-2.4s1.2-0.7,2.5-0.7h26c5.1,0,7.6-1.6,7.6-4.7
		v-0.8c0-2.5-2.1-4.9-6.4-7.2l-15.4-8.6c-5.3-2.7-9.2-5.6-11.7-8.7c-2.5-3.1-3.7-7.1-3.7-12c0-7.3,1.9-12.6,5.8-16
		c3.8-3.4,9.9-5.1,18-5.1h26c2.1,0,3.1,1.1,3.1,3.3v10.1c0,1.1-0.2,1.9-0.6,2.4c-0.4,0.5-1.2,0.7-2.5,0.7h-21.6
		c-5.1,0-7.6,1.3-7.6,3.9v0.8c0,2.3,2.2,4.6,6.7,7l15.7,9.3c5.4,2.9,9.2,5.9,11.4,8.9c2.2,3.1,3.3,7.1,3.3,12.1
		C560,290.9,551.9,297.8,535.6,297.8z"/>
</g>
</svg>
