<?xml version="1.0" encoding="utf-8"?>
<!-- Generator: Adobe Illustrator 21.1.0, SVG Export Plug-In . SVG Version: 6.00 Build 0)  -->
<svg version="1.1" id="Layer_1" xmlns="http://www.w3.org/2000/svg" xmlns:xlink="http://www.w3.org/1999/xlink" x="0px" y="0px"
	 viewBox="0 0 39 10" style="enable-background:new 0 0 39 10;" xml:space="preserve">
<style type="text/css">
	.st0{fill:#C7C7C7;}
	.st1{fill:#FFFFFF;}
</style>
<g>
	<path class="st0" d="M1.3,10h-1C0.1,10,0,9.9,0,9.8V2.6c0-0.2,0.1-0.3,0.3-0.3h1c0.2,0,0.3,0.1,0.3,0.3v0.4h0
		C1.6,2.7,1.8,2.6,2,2.5c0.2-0.1,0.5-0.2,0.7-0.2h0.5c0.6,0,1.1,0.2,1.4,0.5c0.3,0.3,0.5,0.8,0.5,1.4v2.2c0,0.6-0.2,1.1-0.5,1.4
		C4.3,8.2,3.8,8.4,3.2,8.4H2.7C2.5,8.4,2.2,8.3,2,8.2C1.8,8.1,1.6,7.9,1.6,7.7h0v2C1.5,9.9,1.4,10,1.3,10z M2.3,7.1h0.5
		c0.3,0,0.4-0.1,0.5-0.2c0.1-0.1,0.2-0.3,0.2-0.5V4.3c0-0.3-0.1-0.4-0.2-0.5C3.3,3.7,3.1,3.6,2.9,3.6H2.3c-0.5,0-0.8,0.3-0.8,0.9
		v1.6C1.5,6.8,1.8,7.1,2.3,7.1z"/>
	<path class="st0" d="M8.5,8.4H8.1C7.5,8.4,7,8.2,6.7,7.9C6.4,7.5,6.2,7.1,6.2,6.4V2.6c0-0.2,0.1-0.3,0.3-0.3h1
		c0.2,0,0.3,0.1,0.3,0.3v3.8c0,0.3,0.1,0.4,0.2,0.5C8,7,8.2,7.1,8.4,7.1h0.4c0.5,0,0.8-0.3,0.8-0.9V2.6c0-0.2,0.1-0.3,0.3-0.3h1
		c0.2,0,0.3,0.1,0.3,0.3v5.6c0,0.2-0.1,0.3-0.3,0.3h-1c-0.2,0-0.3-0.1-0.3-0.3V7.7h0C9.5,7.9,9.4,8.1,9.2,8.2
		C8.9,8.3,8.7,8.4,8.5,8.4z"/>
	<path class="st0" d="M12.5,8.1V0.3c0-0.2,0.1-0.3,0.3-0.3h1C13.9,0,14,0.1,14,0.3v2.7h0c0.1-0.2,0.2-0.4,0.5-0.5
		c0.2-0.1,0.5-0.2,0.7-0.2h0.4c0.6,0,1.1,0.2,1.5,0.5c0.3,0.3,0.5,0.8,0.5,1.4v2.2c0,0.6-0.2,1.1-0.5,1.4c-0.3,0.3-0.8,0.5-1.5,0.5
		h-2.9C12.6,8.4,12.5,8.3,12.5,8.1z M14.1,7.1h1.2c0.3,0,0.4-0.1,0.5-0.2c0.1-0.1,0.2-0.3,0.2-0.5V4.3c0-0.3-0.1-0.4-0.2-0.5
		c-0.1-0.1-0.3-0.2-0.5-0.2h-0.5c-0.5,0-0.8,0.3-0.8,0.9v2.4C14,7,14.1,7.1,14.1,7.1z"/>
	<path class="st1" d="M20.1,8.4h-1c-0.2,0-0.3-0.1-0.3-0.3V0.3c0-0.2,0.1-0.3,0.3-0.3h1c0.2,0,0.3,0.1,0.3,0.3v7.9
		C20.3,8.3,20.3,8.4,20.1,8.4z"/>
	<path class="st1" d="M23.8,8.4h-0.3c-0.6,0-1.1-0.2-1.5-0.5c-0.3-0.3-0.5-0.8-0.5-1.4V4.2c0-0.6,0.2-1.1,0.5-1.4
		c0.3-0.3,0.8-0.5,1.5-0.5h2.8c0.2,0,0.3,0.1,0.3,0.3v5.6c0,0.2-0.1,0.3-0.3,0.3h-1c-0.2,0-0.3-0.1-0.3-0.3V7.7h0
		c-0.1,0.2-0.2,0.4-0.5,0.5C24.3,8.3,24.1,8.4,23.8,8.4z M25.1,6.2V3.7c0-0.1,0-0.1-0.1-0.1h-1.1c-0.3,0-0.4,0.1-0.5,0.2
		c-0.1,0.1-0.2,0.3-0.2,0.5v2.1c0,0.3,0.1,0.4,0.2,0.5c0.1,0.1,0.3,0.2,0.5,0.2h0.4C24.8,7.1,25.1,6.8,25.1,6.2z"/>
	<path class="st1" d="M27.9,8.1V0.3C27.9,0.1,28,0,28.1,0h1c0.2,0,0.3,0.1,0.3,0.3v2.7h0c0.1-0.2,0.2-0.4,0.5-0.5
		c0.2-0.1,0.5-0.2,0.7-0.2H31c0.6,0,1.1,0.2,1.5,0.5C32.8,3.1,33,3.6,33,4.2v2.2c0,0.6-0.2,1.1-0.5,1.4c-0.3,0.3-0.8,0.5-1.5,0.5
		h-2.9C28,8.4,27.9,8.3,27.9,8.1z M29.5,7.1h1.2c0.3,0,0.4-0.1,0.5-0.2c0.1-0.1,0.2-0.3,0.2-0.5V4.3c0-0.3-0.1-0.4-0.2-0.5
		S31,3.6,30.8,3.6h-0.5c-0.5,0-0.8,0.3-0.8,0.9v2.4C29.4,7,29.4,7.1,29.5,7.1z"/>
	<path class="st1" d="M36.5,8.4h-2.3C34,8.4,34,8.3,34,8.1V7.4c0-0.1,0-0.1,0-0.2s0.1-0.1,0.2-0.1h2c0.4,0,0.6-0.1,0.6-0.4V6.7
		c0-0.2-0.2-0.4-0.5-0.5l-1.2-0.7c-0.4-0.2-0.7-0.4-0.9-0.7c-0.2-0.2-0.3-0.5-0.3-0.9c0-0.6,0.1-1,0.4-1.2c0.3-0.3,0.8-0.4,1.4-0.4
		h2c0.2,0,0.2,0.1,0.2,0.3v0.8c0,0.1,0,0.1,0,0.2c0,0-0.1,0.1-0.2,0.1h-1.7c-0.4,0-0.6,0.1-0.6,0.3v0.1c0,0.2,0.2,0.4,0.5,0.5
		l1.2,0.7c0.4,0.2,0.7,0.5,0.9,0.7c0.2,0.2,0.3,0.5,0.3,0.9C38.3,7.8,37.7,8.4,36.5,8.4z"/>
</g>
</svg>
