<?xml version="1.0" encoding="utf-8"?>
<!-- Generator: Adobe Illustrator 21.1.0, SVG Export Plug-In . SVG Version: 6.00 Build 0)  -->
<svg version="1.1" id="Layer_1" xmlns="http://www.w3.org/2000/svg" xmlns:xlink="http://www.w3.org/1999/xlink" x="0px" y="0px"
	 viewBox="0 0 132 132" style="enable-background:new 0 0 132 132;" xml:space="preserve">
<style type="text/css">
	.st0{fill:#3890CE;}
	.st1{fill:#A4AFC7;}
</style>
<ellipse transform="matrix(0.7071 -0.7071 0.7071 0.7071 -23.68 18.5744)" class="st0" cx="10.6" cy="37.9" rx="7.8" ry="7.8"/>
<path class="st0" d="M47.1,41.1C47.1,41.1,47.1,41.1,47.1,41.1c6.7,6.7,6.7,17.5,0,24.2c-4.8,4.8-11.8,6.2-17.8,4
	c-3.8,16.4,0.8,34.4,13.5,47.1c19.8,19.8,51.8,19.8,71.6,0s19.8-51.8,0-71.6C96,26.5,67,25.3,47.1,41.1z"/>
<ellipse transform="matrix(0.7071 -0.7071 0.7071 0.7071 -27.3912 40.3675)" class="st1" cx="35" cy="53.2" rx="12.1" ry="12.1"/>
<ellipse transform="matrix(0.7071 -0.7071 0.7071 0.7071 -1.177 30.5533)" class="st1" cx="36.3" cy="16.7" rx="16" ry="16"/>
</svg>
